<svg width="1077" height="709" xmlns="http://www.w3.org/2000/svg" xmlns:xlink="http://www.w3.org/1999/xlink" xml:space="preserve" overflow="hidden"><defs><clipPath id="clip0"><rect x="132" y="79" width="1077" height="709"/></clipPath></defs><g clip-path="url(#clip0)" transform="translate(-132 -79)"><path d="M0 0 1343.38 0 1343.38 1007.53 0 1007.53Z" fill="#FFFFFF" transform="matrix(1.00015 0 0 1 0.0336082 0.372232)"/><path d="M138.935 280.869 374.826 280.869 374.826 319.851 138.935 319.851Z" fill="#8FAADC" transform="matrix(1.00015 0 0 1 0.0336082 0.372232)"/><text font-family="Calibri,Calibri_MSFontService,sans-serif" font-weight="400" font-size="24" transform="matrix(0.999687 0 0 0.999535 201.456 308)">User Inputs</text><path d="M138.935 330.846 374.826 330.846 374.826 456.788 138.935 456.788Z" fill="#DAE3F3" fill-opacity="0.501961" transform="matrix(1.00015 0 0 1 0.0336082 0.372232)"/><text font-family="Calibri,Calibri_MSFontService,sans-serif" font-weight="400" font-size="16" transform="matrix(0.999687 0 0 0.999535 148.98 351)">Flow time series</text><text font-family="Calibri,Calibri_MSFontService,sans-serif" font-weight="400" font-size="16" transform="matrix(0.999687 0 0 0.999535 148.98 389)">Head</text><text font-family="Calibri,Calibri_MSFontService,sans-serif" font-weight="400" font-size="16" transform="matrix(0.999687 0 0 0.999535 148.98 428)">Additional inputs</text><path d="M963.552 337.843 1199.44 337.843 1199.44 376.825 963.552 376.825Z" fill="#8FAADC" transform="matrix(1.00015 0 0 1 0.0336082 0.372232)"/><text font-family="Calibri,Calibri_MSFontService,sans-serif" font-weight="400" font-size="24" transform="matrix(0.999687 0 0 0.999535 1041.82 365)">Outputs</text><path d="M963.552 386.82 1199.44 386.82 1199.44 415.807 963.552 415.807Z" fill="#DAE3F3" fill-opacity="0.501961" transform="matrix(1.00015 0 0 1 0.0336082 0.372232)"/><text font-family="Calibri,Calibri_MSFontService,sans-serif" font-weight="400" font-size="16" transform="matrix(0.999687 0 0 0.999535 973.013 407)">all</text><text font-family="Calibri,Calibri_MSFontService,sans-serif" font-weight="400" font-size="16" transform="matrix(0.999687 0 0 0.999535 989.008 407)">_</text><text font-family="Calibri,Calibri_MSFontService,sans-serif" font-weight="400" font-size="16" transform="matrix(0.999687 0 0 0.999535 997.006 407)">params dictionary object</text><text font-family="Calibri,Calibri_MSFontService,sans-serif" font-weight="400" font-size="16" transform="matrix(0.999687 0 0 0.999535 1156.96 407)">.</text><path d="M486.774 136.936 928.568 136.936 928.568 748.652 486.774 748.652Z" fill="#F2F2F2" transform="matrix(1.00015 0 0 1 0.0336082 0.372232)"/><path d="M486.774 83.961 928.568 83.961 928.568 122.943 486.774 122.943Z" fill="#A9D18E" transform="matrix(1.00015 0 0 1 0.0336082 0.372232)"/><text font-family="Calibri,Calibri_MSFontService,sans-serif" font-weight="400" font-size="24" transform="matrix(0.999687 0 0 0.999535 619.843 111)">Module Execution</text><path d="M564.737 235.89 823.617 235.89 823.617 280.869 564.737 280.869Z" fill="#BFBFBF" transform="matrix(1.00015 0 0 1 0.0336082 0.372232)"/><text font-family="Calibri,Calibri_MSFontService,sans-serif" font-weight="400" font-size="19" transform="matrix(0.999687 0 0 0.999535 635.082 258)">Unit conversion</text><path d="M664.191 300.36 878.092 300.36 878.092 469.282 664.191 469.282Z" stroke="#172C51" stroke-width="1.33271" stroke-miterlimit="8" fill="none" transform="matrix(1.00015 0 0 1 0.0336082 0.372232)"/><path d="M680.684 412.808 860.6 412.808 860.6 456.788 680.684 456.788Z" fill="#D9D9D9" transform="matrix(1.00015 0 0 1 0.0336082 0.372232)"/><text font-family="Calibri,Calibri_MSFontService,sans-serif" font-weight="400" font-size="19" transform="matrix(0.999687 0 0 0.999535 719.068 435)">Hydrokinetics</text><path d="M680.684 310.855 860.6 310.855 860.6 355.835 680.684 355.835Z" fill="#D9D9D9" transform="matrix(1.00015 0 0 1 0.0336082 0.372232)"/><text font-family="Calibri,Calibri_MSFontService,sans-serif" font-weight="400" font-size="19" transform="matrix(0.999687 0 0 0.999535 751.498 333)">Basic</text><path d="M680.684 361.832 860.6 361.832 860.6 405.811 680.684 405.811Z" fill="#D9D9D9" transform="matrix(1.00015 0 0 1 0.0336082 0.372232)"/><text font-family="Calibri,Calibri_MSFontService,sans-serif" font-weight="400" font-size="19" transform="matrix(0.999687 0 0 0.999535 735.337 384)">Diversion</text><path d="M499.768 300.86 645.7 300.86 645.7 468.782 499.768 468.782Z" fill="#BFBFBF" transform="matrix(1.00015 0 0 1 0.0336082 0.372232)"/><text font-family="Calibri,Calibri_MSFontService,sans-serif" font-weight="400" font-size="19" transform="matrix(0.999687 0 0 0.999535 525.479 323)">Hydropower</text><text font-family="Calibri,Calibri_MSFontService,sans-serif" font-weight="400" font-size="19" transform="matrix(0.999687 0 0 0.999535 538.282 346)">potential</text><text font-family="Calibri,Calibri_MSFontService,sans-serif" font-weight="400" font-size="19" transform="matrix(0.999687 0 0 0.999535 520.381 368)">computations</text><text font-family="Calibri,Calibri_MSFontService,sans-serif" font-weight="400" font-size="19" transform="matrix(0.999687 0 0 0.999535 519.521 391)">based on user</text><text font-family="Calibri,Calibri_MSFontService,sans-serif" font-weight="400" font-size="19" transform="matrix(0.999687 0 0 0.999535 540.947 413)">selected</text><text font-family="Calibri,Calibri_MSFontService,sans-serif" font-weight="400" font-size="19" transform="matrix(0.999687 0 0 0.999535 526.572 435)">hydropower</text><text font-family="Calibri,Calibri_MSFontService,sans-serif" font-weight="400" font-size="19" transform="matrix(0.999687 0 0 0.999535 555.677 458)">type</text><path d="M572.734 487.773 831.613 487.773 831.613 542.748 572.734 542.748Z" fill="#BFBFBF" transform="matrix(1.00015 0 0 1 0.0336082 0.372232)"/><text font-family="Calibri,Calibri_MSFontService,sans-serif" font-weight="400" font-size="19" transform="matrix(0.999687 0 0 0.999535 611.488 510)">Economic computations</text><text font-family="Calibri,Calibri_MSFontService,sans-serif" font-weight="400" font-size="19" transform="matrix(0.999687 0 0 0.999535 582.484 533)">(</text><text font-family="Calibri,Calibri_MSFontService,sans-serif" font-weight="400" font-size="19" transform="matrix(0.999687 0 0 0.999535 588.482 533)">not available for hydrokinetics</text><text font-family="Calibri,Calibri_MSFontService,sans-serif" font-weight="400" font-size="19" transform="matrix(0.999687 0 0 0.999535 821.41 533)">)</text><path d="M596.223 564.238 809.124 564.238 809.124 733.159 596.223 733.159Z" stroke="#172C51" stroke-width="1.33271" stroke-miterlimit="8" fill="none" transform="matrix(1.00015 0 0 1 0.0336082 0.372232)"/><path d="M611.716 676.685 791.632 676.685 791.632 721.664 611.716 721.664Z" fill="#D9D9D9" transform="matrix(1.00015 0 0 1 0.0336082 0.372232)"/><text font-family="Calibri,Calibri_MSFontService,sans-serif" font-weight="400" font-size="19" transform="matrix(0.999687 0 0 0.999535 669.388 699)">Revenue</text><path d="M611.716 574.733 791.632 574.733 791.632 619.712 611.716 619.712Z" fill="#D9D9D9" transform="matrix(1.00015 0 0 1 0.0336082 0.372232)"/><text font-family="Calibri,Calibri_MSFontService,sans-serif" font-weight="400" font-size="19" transform="matrix(0.999687 0 0 0.999535 685.603 597)">Cost</text><path d="M611.716 625.709 791.632 625.709 791.632 670.688 611.716 670.688Z" fill="#D9D9D9" transform="matrix(1.00015 0 0 1 0.0336082 0.372232)"/><text font-family="Calibri,Calibri_MSFontService,sans-serif" font-weight="400" font-size="19" transform="matrix(0.999687 0 0 0.999535 681.75 648)">O</text><text font-family="Calibri,Calibri_MSFontService,sans-serif" font-weight="400" font-size="19" transform="matrix(0.999687 0 0 0.999535 694.746 648)">&amp;</text><text font-family="Calibri,Calibri_MSFontService,sans-serif" font-weight="400" font-size="19" transform="matrix(0.999687 0 0 0.999535 707.742 648)">M</text><path d="M595.723 162.924 793.631 162.924 793.631 217.899 595.723 217.899Z" fill="#FFD966" transform="matrix(1.00015 0 0 1 0.0336082 0.372232)"/><text font-family="Calibri,Calibri_MSFontService,sans-serif" font-weight="400" font-size="19" transform="matrix(0.999687 0 0 0.999535 605.885 185)">all</text><text font-family="Calibri,Calibri_MSFontService,sans-serif" font-weight="400" font-size="19" transform="matrix(0.999687 0 0 0.999535 622.88 185)">_</text><text font-family="Calibri,Calibri_MSFontService,sans-serif" font-weight="400" font-size="19" transform="matrix(0.999687 0 0 0.999535 631.877 185)">params object build</text><text font-family="Calibri,Calibri_MSFontService,sans-serif" font-weight="400" font-size="19" transform="matrix(0.999687 0 0 0.999535 629.324 208)">for computations</text><path d="M257.047 282.131 257.047 191.078 588.789 191.078 588.789 191.744 257.38 191.744 257.713 191.411 257.713 282.131ZM587.456 187.413 595.452 191.411 587.456 195.409Z" fill="#4472C4" transform="matrix(1.00015 0 0 1 0.0336082 0.372232)"/><path d="M905.412 176.418 905.412 715.041 904.746 715.041 904.746 176.418ZM909.077 713.708 905.079 721.704 901.081 713.708Z" fill="#4472C4" transform="matrix(1.00015 0 0 1 0.0336082 0.372232)"/><path d="M708.504 749.158 708.504 773.147 708.171 772.813 1081.42 772.813 1081.09 773.147 1081.09 422.969 1081.76 422.969 1081.76 773.479 707.838 773.479 707.838 749.158ZM1077.42 424.303 1081.42 416.306 1085.42 424.303Z" fill="#4472C4" transform="matrix(1.00015 0 0 1 0.0336082 0.372232)"/></g></svg>